{
  "asset": {
    "generator": "gltfeditor.com",
    "version": "2.0"
  },
  "buffers": [
    {
      "uri": "data:application/octet-stream;base64,",
      "byteLength": 496842
    },
    {
      "uri": "data:application/octet-stream;base64,",
      "byteLength": 24480
    }
  ],
  "bufferViews": [
    {
      "buffer": 0,
      "byteOffset": 0,
      "byteLength": 467616,
      "byteStride": 32,
      "target": 34962
    },
    {
      "buffer": 0,
      "byteOffset": 467616,
      "byteLength": 29226,
      "target": 34963
    },
    {
      "buffer": 1,
      "byteOffset": 0,
      "byteLength": 23040,
      "byteStride": 32,
      "target": 34962
    },
    {
      "buffer": 1,
      "byteOffset": 23040,
      "byteLength": 1440,
      "target": 34963
    }
  ],
  "accessors": [
    {
      "bufferView": 0,
      "byteOffset": 0,
      "componentType": 5126,
      "normalized": false,
      "count": 14613,
      "min": [
        -104.5387191772461,
        -104.12676239013672,
        -83.255126953125
      ],
      "max": [
        87.86383819580078,
        103.00968933105469,
        102.37537384033203
      ],
      "type": "VEC3"
    },
    {
      "bufferView": 0,
      "byteOffset": 12,
      "componentType": 5126,
      "normalized": false,
      "count": 14613,
      "min": [
        -0.9996753931045532,
        -0.9997959733009338,
        -0.9998565316200256
      ],
      "max": [
        0.9978532791137695,
        0.9997475743293762,
        0.9999955892562866
      ],
      "type": "VEC3"
    },
    {
      "bufferView": 0,
      "byteOffset": 24,
      "componentType": 5126,
      "normalized": false,
      "count": 14613,
      "min": [
        0.2759999930858612,
        1.2720000743865967
      ],
      "max": [
        0.9959999918937683,
        1.4880000352859497
      ],
      "type": "VEC2"
    },
    {
      "bufferView": 1,
      "byteOffset": 0,
      "componentType": 5123,
      "normalized": false,
      "count": 14613,
      "min": [
        0
      ],
      "max": [
        14612
      ],
      "type": "SCALAR"
    },
    {
      "bufferView": 2,
      "byteOffset": 0,
      "componentType": 5126,
      "normalized": false,
      "count": 720,
      "min": [
        -102.94007110595703,
        -103.76998138427734,
        -103.47417449951172
      ],
      "max": [
        101.64578247070312,
        103.0677490234375,
        102.68953704833984
      ],
      "type": "VEC3"
    },
    {
      "bufferView": 2,
      "byteOffset": 12,
      "componentType": 5126,
      "normalized": false,
      "count": 720,
      "min": [
        -0.9971575140953064,
        -0.9875708222389221,
        -0.9908089637756348
      ],
      "max": [
        0.9998844265937805,
        0.9951984286308289,
        0.9987695217132568
      ],
      "type": "VEC3"
    },
    {
      "bufferView": 2,
      "byteOffset": 24,
      "componentType": 5126,
      "normalized": false,
      "count": 720,
      "min": [
        0,
        1.040000081062317
      ],
      "max": [
        1,
        1.2400000095367432
      ],
      "type": "VEC2"
    },
    {
      "bufferView": 3,
      "byteOffset": 0,
      "componentType": 5123,
      "normalized": false,
      "count": 720,
      "min": [
        0
      ],
      "max": [
        719
      ],
      "type": "SCALAR"
    }
  ],
  "scene": 0,
  "scenes": [
    {
      "nodes": [
        7
      ],
      "name": "earth"
    }
  ],
  "nodes": [
    {
      "name": "Object_4",
      "mesh": 0
    },
    {
      "name": "3DSMeshMatrix",
      "children": [
        0
      ]
    },
    {
      "name": "Land_Masse",
      "children": [
        1
      ]
    },
    {
      "name": "Object_7",
      "mesh": 1
    },
    {
      "name": "3DSMeshMatrix",
      "children": [
        3
      ],
      "matrix": [
        0.9576541781425476,
        -0.27625954151153564,
        0.08111191540956497,
        0,
        0.2879209518432617,
        0.9188671708106995,
        -0.26978638768196106,
        0,
        -1.3559360745318827e-8,
        0.28171586990356445,
        0.95949786901474,
        0,
        0,
        0,
        0,
        1
      ]
    },
    {
      "name": "Oceans",
      "children": [
        4
      ],
      "matrix": [
        0.9576541781425476,
        0.2879209518432617,
        1.0331662192442082e-9,
        0,
        -0.27625954151153564,
        0.9188671708106995,
        0.28171586990356445,
        0,
        0.08111190050840378,
        -0.26978638768196106,
        0.95949786901474,
        0,
        0,
        0,
        0,
        1
      ]
    },
    {
      "name": "Earth",
      "children": [
        2,
        5
      ]
    },
    {
      "name": "Sketchfab_model",
      "children": [
        6
      ],
      "matrix": [
        1,
        0,
        0,
        0,
        0,
        3.4228538225988814e-8,
        -0.9999998807907104,
        0,
        0,
        0.9999998807907104,
        3.4228538225988814e-8,
        0,
        0,
        0,
        0,
        1
      ]
    }
  ],
  "meshes": [
    {
      "primitives": [
        {
          "material": 0,
          "mode": 4,
          "attributes": {
            "POSITION": 0,
            "NORMAL": 1,
            "TEXCOORD_0": 2
          },
          "indices": 3
        }
      ]
    },
    {
      "primitives": [
        {
          "material": 1,
          "mode": 4,
          "attributes": {
            "POSITION": 4,
            "NORMAL": 5,
            "TEXCOORD_0": 6
          },
          "indices": 7
        }
      ]
    }
  ],
  "materials": [
    {
      "name": "Land_Masses",
      "pbrMetallicRoughness": {
        "baseColorFactor": [
          0.9803921568627451,
          0.7686274509803922,
          0.00784313725490196,
          1
        ],
        "metallicFactor": 0.24,
        "roughnessFactor": 0.5699999999999998
      },
      "emissiveFactor": [
        0,
        0,
        0
      ],
      "alphaMode": "OPAQUE",
      "doubleSided": true
    },
    {
      "name": "Oceans",
      "pbrMetallicRoughness": {
        "baseColorFactor": [
          0.0392156862745098,
          0.0392156862745098,
          0.0392156862745098,
          1
        ],
        "metallicFactor": 0.6299999999999997,
        "roughnessFactor": 0
      },
      "emissiveFactor": [
        0,
        0,
        0
      ],
      "alphaMode": "OPAQUE",
      "doubleSided": true,
      "extensions": {
        "KHR_materials_emissive_strength": {
          "emissiveStrength": 0
        }
      }
    }
  ],
  "extensionsUsed": [
    "KHR_materials_emissive_strength"
  ]
}